HIERARCHY
ROOT Root
{
	OFFSET 0.00000 0.00000 0.00000
	CHANNELS 6 Xposition Yposition Zposition Zrotation Xrotation Yrotation
	JOINT Hip
	{
		OFFSET 0 0 0	
		CHANNELS 3 Zrotation Xrotation Yrotation
		JOINT Tummy
		{
			OFFSET 0 0.04 0	
			CHANNELS 3 Zrotation Xrotation Yrotation
			JOINT ChestBottom
			{
				OFFSET 0 0.194 0	
				CHANNELS 3 Zrotation Xrotation Yrotation
				JOINT ChestTop
				{
					OFFSET 0 0.166 0	
					CHANNELS 3 Zrotation Xrotation Yrotation
					JOINT LeftCollar
					{
						OFFSET 0 0.1 0	
						CHANNELS 3 Zrotation Xrotation Yrotation
						JOINT LeftUpperArm
						{
							OFFSET 0.156 -0.02 0.03	
							CHANNELS 3 Zrotation Xrotation Yrotation
							JOINT LeftForeArm
							{
								OFFSET 0.035 -0.27 -0.01	
								CHANNELS 3 Zrotation Xrotation Yrotation
								JOINT LeftHand
								{
									OFFSET 0.01 -0.27 0.01	
									CHANNELS 3 Zrotation Xrotation Yrotation
									End Site
									{
										OFFSET 0 -0.15 0
									}
								}
							}
						}
					}
					JOINT RightCollar
					{
						OFFSET 0 0.1 0	
						CHANNELS 3 Zrotation Xrotation Yrotation
						JOINT RightUpperArm
						{
							OFFSET -0.156 -0.02 0.03	
							CHANNELS 3 Zrotation Xrotation Yrotation
							JOINT RightForeArm
							{
								OFFSET -0.035 -0.27 -0.01	
								CHANNELS 3 Zrotation Xrotation Yrotation
								JOINT RightHand
								{
									OFFSET -0.01 -0.27 0.01	
									CHANNELS 3 Zrotation Xrotation Yrotation
									End Site
									{
										OFFSET 0 -0.15 0
									}
								}
							}
						}
					}
					JOINT Neck
					{
						OFFSET 0 0.1 0	
						CHANNELS 3 Zrotation Xrotation Yrotation
						JOINT Head
						{
							OFFSET 0 0.127 0.03	
							CHANNELS 3 Zrotation Xrotation Yrotation
							End Site
							{
								OFFSET 0 0.127 0.03
							}
						}
					}
				}
			}
		}
	}
	JOINT LeftHip
	{
		OFFSET 0 0 0	
		CHANNELS 3 Zrotation Xrotation Yrotation
		JOINT LeftThigh
		{
			OFFSET 0.088 -0.06 0	
			CHANNELS 3 Zrotation Xrotation Yrotation
			JOINT LeftLowerLeg
			{
				OFFSET 0 -0.39 0.02	
				CHANNELS 3 Zrotation Xrotation Yrotation
				JOINT LeftFootTop
				{
					OFFSET 0 -0.43 -0.02	
					CHANNELS 3 Zrotation Xrotation Yrotation
					JOINT LeftFootFront
					{
						OFFSET 0 -0.07 0.085	
						CHANNELS 3 Zrotation Xrotation Yrotation
						End Site
						{
							OFFSET 0 -0.005 0.09
						}
					}
				}
				JOINT LeftHeel
				{
					OFFSET 0 -0.43 -0.02	
					CHANNELS 3 Zrotation Xrotation Yrotation
					End Site
					{
						OFFSET 0 -0.075 -0.05
					}
				}
			}
		}
	}
	JOINT RightHip
	{
		OFFSET 0 0 0	
		CHANNELS 3 Zrotation Xrotation Yrotation
		JOINT RightThigh
		{
			OFFSET -0.088 -0.06 0	
			CHANNELS 3 Zrotation Xrotation Yrotation
			JOINT RightLowerLeg
			{
				OFFSET 0 -0.39 0.02	
				CHANNELS 3 Zrotation Xrotation Yrotation
				JOINT RightFootTop
				{
					OFFSET 0 -0.43 -0.02	
					CHANNELS 3 Zrotation Xrotation Yrotation
					JOINT RightFootFront
					{
						OFFSET 0 -0.07 0.085	
						CHANNELS 3 Zrotation Xrotation Yrotation
						End Site
						{
							OFFSET 0 -0.005 0.09
						}
					}
				}
				JOINT RightHeel
				{
					OFFSET 0 -0.43 -0.02	
					CHANNELS 3 Zrotation Xrotation Yrotation
					End Site
					{
						OFFSET 0 -0.075 -0.05
					}
				}
			}
		}
	}
}
MOTION
Frames: 26
Frame Time: 0.05
0 0.955 0 -0 0 -0 -0 0 -0 -0 0 -0 -0.20904 5.5959 -4.1067 -0 0 -0 -0 0 -0 -0.91267 -1.0661 -0.57967 -1.6625 -9.8165 22.249 -0 0 -0 -0 0 -0 -0.66001 -1.6657 2.9887 6.6979 -16.105 1.3056 -0 0 -0 -0 0 -0 -0 0 -0 -0 0 -0 -0 0 -0 -0 0 -0 -0 0 -0 -0 0 -0 -0 0 -0 -0 0 -0 -0 0 -0 -0 0 -0 -0 0 -0 -0 0 -0 -0 0 -0 
0 0.955 0 -0 0 -0 -0 0 -0 -0 0 -0 -0.25624 5.5216 -4.1393 -0 0 -0 -0 0 -0 -1.0445 -1.2297 -0.41928 -1.473 -9.739 22.574 -0 0 -0 -0 0 -0 -0.8815 -1.8681 3.2199 6.6772 -18.181 1.5965 -0 0 -0 -0 0 -0 -0 0 -0 -0 0 -0 -0 0 -0 -0 0 -0 -0 0 -0 -0 0 -0 -0 0 -0 -0 0 -0 -0 0 -0 -0 0 -0 -0 0 -0 -0 0 -0 -0 0 -0 
0 0.955 0 -0 0 -0 -0 0 -0 -0 0 -0 -0.30084 5.4267 -4.1394 -0 0 -0 -0 0 -0 -1.1104 -1.2425 -0.42057 -0.99874 -9.7832 22.371 -0 0 -0 -0 0 -0 -1.221 -2.0531 3.1754 6.9613 -19.867 2.1062 -0 0 -0 -0 0 -0 -0 0 -0 -0 0 -0 -0 0 -0 -0 0 -0 -0 0 -0 -0 0 -0 -0 0 -0 -0 0 -0 -0 0 -0 -0 0 -0 -0 0 -0 -0 0 -0 -0 0 -0 
0 0.955 0 -0 0 -0 -0 0 -0 -0 0 -0 -0.38688 5.3086 -4.1423 -0 0 -0 -0 0 -0 -1.1292 -1.1502 -0.51359 -0.55366 -9.8343 22.125 -0 0 -0 -0 0 -0 -1.4704 -2.2263 3.0041 7.614 -20.894 2.3288 -0 0 -0 -0 0 -0 -0 0 -0 -0 0 -0 -0 0 -0 -0 0 -0 -0 0 -0 -0 0 -0 -0 0 -0 -0 0 -0 -0 0 -0 -0 0 -0 -0 0 -0 -0 0 -0 -0 0 -0 
0 0.955 0 -0 0 -0 -0 0 -0 -0 0 -0 -0.7759 5.091 -4.0546 -0 0 -0 -0 0 -0 -0.88034 -0.95993 -0.54383 -0.5009 -9.8603 21.914 -0 0 -0 -0 0 -0 -1.2391 -2.2523 2.9436 7.7823 -20.989 2.4953 -0 0 -0 -0 0 -0 -0 0 -0 -0 0 -0 -0 0 -0 -0 0 -0 -0 0 -0 -0 0 -0 -0 0 -0 -0 0 -0 -0 0 -0 -0 0 -0 -0 0 -0 -0 0 -0 -0 0 -0 
0 0.955 0 -0 0 -0 -0 0 -0 -0 0 -0 -0.89391 4.9435 -3.9108 -0 0 -0 -0 0 -0 -0.85775 -0.92291 -0.50851 -0.023603 -9.8916 21.589 -0 0 -0 -0 0 -0 -0.90306 -2.433 2.9436 7.4329 -20.293 2.5922 -0 0 -0 -0 0 -0 -0 0 -0 -0 0 -0 -0 0 -0 -0 0 -0 -0 0 -0 -0 0 -0 -0 0 -0 -0 0 -0 -0 0 -0 -0 0 -0 -0 0 -0 -0 0 -0 -0 0 -0 
0 0.955 0 -0 0 -0 -0 0 -0 -0 0 -0 -0.96663 4.8427 -3.7387 -0 0 -0 -0 0 -0 -0.81731 -0.96574 -0.45882 0.43805 -9.9941 21.255 -0 0 -0 -0 0 -0 -0.60388 -2.2871 2.7348 6.973 -19.444 3.1694 -0 0 -0 -0 0 -0 -0 0 -0 -0 0 -0 -0 0 -0 -0 0 -0 -0 0 -0 -0 0 -0 -0 0 -0 -0 0 -0 -0 0 -0 -0 0 -0 -0 0 -0 -0 0 -0 -0 0 -0 
0 0.955 0 -0 0 -0 -0 0 -0 -0 0 -0 -1.0107 4.7731 -3.5783 -0 0 -0 -0 0 -0 -0.79027 -0.97017 -0.44894 0.66923 -10.039 20.77 -0 0 -0 -0 0 -0 -0.409 -1.9724 2.438 6.9169 -18.766 3.8833 -0 0 -0 -0 0 -0 -0 0 -0 -0 0 -0 -0 0 -0 -0 0 -0 -0 0 -0 -0 0 -0 -0 0 -0 -0 0 -0 -0 0 -0 -0 0 -0 -0 0 -0 -0 0 -0 -0 0 -0 
0 0.955 0 -0 0 -0 -0 0 -0 -0 0 -0 -1.0269 4.7295 -3.5254 -0 0 -0 -0 0 -0 -0.79972 -0.95419 -0.37391 0.84989 -10.068 20.368 -0 0 -0 -0 0 -0 -0.25911 -1.4999 2.1068 7.407 -18.688 4.4978 -0 0 -0 -0 0 -0 -0 0 -0 -0 0 -0 -0 0 -0 -0 0 -0 -0 0 -0 -0 0 -0 -0 0 -0 -0 0 -0 -0 0 -0 -0 0 -0 -0 0 -0 -0 0 -0 -0 0 -0 
0 0.955 0 -0 0 -0 -0 0 -0 -0 0 -0 -0.98994 4.7085 -3.527 -0 0 -0 -0 0 -0 -0.82167 -0.95966 -0.24465 0.61762 -9.6856 20.082 -0 0 -0 -0 0 -0 -0.1167 -0.66566 1.3289 8.3975 -20.312 5.5876 -0 0 -0 -0 0 -0 -0 0 -0 -0 0 -0 -0 0 -0 -0 0 -0 -0 0 -0 -0 0 -0 -0 0 -0 -0 0 -0 -0 0 -0 -0 0 -0 -0 0 -0 -0 0 -0 -0 0 -0 
0 0.955 0 -0 0 -0 -0 0 -0 -0 0 -0 -0.72804 4.7829 -3.6739 -0 0 -0 -0 0 -0 -0.86926 -1.0647 0.13036 0.47651 -9.5786 19.617 -0 0 -0 -0 0 -0 -0.38713 0.40187 -0.35453 12.355 -25.725 8.0263 -0 0 -0 -0 0 -0 -0 0 -0 -0 0 -0 -0 0 -0 -0 0 -0 -0 0 -0 -0 0 -0 -0 0 -0 -0 0 -0 -0 0 -0 -0 0 -0 -0 0 -0 -0 0 -0 -0 0 -0 
0 0.955 0 -0 0 -0 -0 0 -0 -0 0 -0 -0.27077 5.0339 -4.2796 -0 0 -0 -0 0 -0 -0.78726 -0.9828 0.68152 -0.36068 -9.9046 19.042 -0 0 -0 -0 0 -0 -1.6928 0.1024 -2.5919 25.811 -34.424 15.814 -0 0 -0 -0 0 -0 -0 0 -0 -0 0 -0 -0 0 -0 -0 0 -0 -0 0 -0 -0 0 -0 -0 0 -0 -0 0 -0 -0 0 -0 -0 0 -0 -0 0 -0 -0 0 -0 -0 0 -0 
0 0.955 0 -0 0 -0 -0 0 -0 -0 0 -0 0.076611 5.416 -5.4042 -0 0 -0 -0 0 -0 -0.22782 -0.36551 0.77698 -1.9338 -10.708 18.962 -0 0 -0 -0 0 -0 -4.2583 -3.7846 -3.5183 49.537 -40.849 31.409 -0 0 -0 -0 0 -0 -0 0 -0 -0 0 -0 -0 0 -0 -0 0 -0 -0 0 -0 -0 0 -0 -0 0 -0 -0 0 -0 -0 0 -0 -0 0 -0 -0 0 -0 -0 0 -0 -0 0 -0 
0 0.955 0 -0 0 -0 -0 0 -0 -0 0 -0 0.20364 5.8718 -6.4369 -0 0 -0 -0 0 -0 0.36247 0.33099 0.33505 -3.4656 -10.809 18.721 -0 0 -0 -0 0 -0 -6.6999 -11.685 -1.8566 73.463 -42.712 50.067 -0 0 -0 -0 0 -0 -0 0 -0 -0 0 -0 -0 0 -0 -0 0 -0 -0 0 -0 -0 0 -0 -0 0 -0 -0 0 -0 -0 0 -0 -0 0 -0 -0 0 -0 -0 0 -0 -0 0 -0 
0 0.955 0 -0 0 -0 -0 0 -0 -0 0 -0 0.38247 6.5511 -7.0178 -0 0 -0 -0 0 -0 0.74745 0.62927 0.079076 -4.462 -10.678 18.545 -0 0 -0 -0 0 -0 -7.7546 -21.705 2.6467 94.117 -41.987 63.685 -0 0 -0 -0 0 -0 -0 0 -0 -0 0 -0 -0 0 -0 -0 0 -0 -0 0 -0 -0 0 -0 -0 0 -0 -0 0 -0 -0 0 -0 -0 0 -0 -0 0 -0 -0 0 -0 -0 0 -0 
0 0.955 0 -0 0 -0 -0 0 -0 -0 0 -0 0.72208 7.652 -6.8434 -0 0 -0 -0 0 -0 1.1096 0.2895 -0.19959 -5.7073 -10.942 18.817 -0 0 -0 -0 0 -0 -7.2761 -31.35 8.3334 107.14 -40.371 74.6 -0 0 -0 -0 0 -0 -0 0 -0 -0 0 -0 -0 0 -0 -0 0 -0 -0 0 -0 -0 0 -0 -0 0 -0 -0 0 -0 -0 0 -0 -0 0 -0 -0 0 -0 -0 0 -0 -0 0 -0 
0 0.955 0 -0 0 -0 -0 0 -0 -0 0 -0 1.205 8.8039 -5.948 -0 0 -0 -0 0 -0 1.4414 -0.14171 -0.48918 -6.8492 -11.415 19.017 -0 0 -0 -0 0 -0 -6.0604 -38.659 13.125 113.52 -39.752 82.896 -0 0 -0 -0 0 -0 -0 0 -0 -0 0 -0 -0 0 -0 -0 0 -0 -0 0 -0 -0 0 -0 -0 0 -0 -0 0 -0 -0 0 -0 -0 0 -0 -0 0 -0 -0 0 -0 -0 0 -0 
0 0.955 0 -0 0 -0 -0 0 -0 -0 0 -0 2.0738 9.7997 -4.7491 -0 0 -0 -0 0 -0 1.3154 -0.44459 -0.3331 -7.9706 -11.824 18.726 -0 0 -0 -0 0 -0 -4.6345 -43.417 15.978 115.73 -38.849 86.018 -0 0 -0 -0 0 -0 -0 0 -0 -0 0 -0 -0 0 -0 -0 0 -0 -0 0 -0 -0 0 -0 -0 0 -0 -0 0 -0 -0 0 -0 -0 0 -0 -0 0 -0 -0 0 -0 -0 0 -0 
0 0.955 0 -0 0 -0 -0 0 -0 -0 0 -0 2.8228 10.858 -2.9379 -0 0 -0 -0 0 -0 1.1635 -0.71252 -0.16882 -9.2519 -12.496 18.798 -0 0 -0 -0 0 -0 -3.8051 -46.094 16.831 116.87 -37.475 85.409 -0 0 -0 -0 0 -0 -0 0 -0 -0 0 -0 -0 0 -0 -0 0 -0 -0 0 -0 -0 0 -0 -0 0 -0 -0 0 -0 -0 0 -0 -0 0 -0 -0 0 -0 -0 0 -0 -0 0 -0 
0 0.955 0 -0 0 -0 -0 0 -0 -0 0 -0 3.4354 11.85 -0.65677 -0 0 -0 -0 0 -0 0.98237 -0.79678 -0.14182 -10.75 -12.766 18.76 -0 0 -0 -0 0 -0 -3.8251 -46.735 16.629 117.47 -36.386 86.406 -0 0 -0 -0 0 -0 -0 0 -0 -0 0 -0 -0 0 -0 -0 0 -0 -0 0 -0 -0 0 -0 -0 0 -0 -0 0 -0 -0 0 -0 -0 0 -0 -0 0 -0 -0 0 -0 -0 0 -0 
0 0.955 0 -0 0 -0 -0 0 -0 -0 0 -0 3.8909 12.707 1.8895 -0 0 -0 -0 0 -0 0.71648 -0.67581 -0.20873 -12.384 -12.399 18.579 -0 0 -0 -0 0 -0 -4.3037 -46.444 15.307 118.63 -34.726 86.173 -0 0 -0 -0 0 -0 -0 0 -0 -0 0 -0 -0 0 -0 -0 0 -0 -0 0 -0 -0 0 -0 -0 0 -0 -0 0 -0 -0 0 -0 -0 0 -0 -0 0 -0 -0 0 -0 -0 0 -0 
0 0.955 0 -0 0 -0 -0 0 -0 -0 0 -0 4.0549 13.7 4.3298 -0 0 -0 -0 0 -0 0.72654 -0.53416 0.084209 -13.871 -12.008 18.299 -0 0 -0 -0 0 -0 -4.8808 -45.735 13.312 119.2 -33.984 86.873 -0 0 -0 -0 0 -0 -0 0 -0 -0 0 -0 -0 0 -0 -0 0 -0 -0 0 -0 -0 0 -0 -0 0 -0 -0 0 -0 -0 0 -0 -0 0 -0 -0 0 -0 -0 0 -0 -0 0 -0 
0 0.955 0 -0 0 -0 -0 0 -0 -0 0 -0 3.9577 14.832 6.5651 -0 0 -0 -0 0 -0 0.96936 -0.20256 0.27356 -15.764 -11.993 18.24 -0 0 -0 -0 0 -0 -5.3471 -44.808 11.295 119.24 -34.907 87.41 -0 0 -0 -0 0 -0 -0 0 -0 -0 0 -0 -0 0 -0 -0 0 -0 -0 0 -0 -0 0 -0 -0 0 -0 -0 0 -0 -0 0 -0 -0 0 -0 -0 0 -0 -0 0 -0 -0 0 -0 
0 0.955 0 -0 0 -0 -0 0 -0 -0 0 -0 3.8194 15.939 8.8512 -0 0 -0 -0 0 -0 1.133 0.62628 0.05072 -18.139 -12.2 18.08 -0 0 -0 -0 0 -0 -6.0332 -43.075 9.2824 118.61 -37.747 87.905 -0 0 -0 -0 0 -0 -0 0 -0 -0 0 -0 -0 0 -0 -0 0 -0 -0 0 -0 -0 0 -0 -0 0 -0 -0 0 -0 -0 0 -0 -0 0 -0 -0 0 -0 -0 0 -0 -0 0 -0 
0 0.955 0 -0 0 -0 -0 0 -0 -0 0 -0 3.549 16.904 11.477 -0 0 -0 -0 0 -0 1.0892 1.4889 0.19868 -19.425 -12.128 18.036 -0 0 -0 -0 0 -0 -6.9662 -40.333 6.8517 117.38 -41.707 86.591 -0 0 -0 -0 0 -0 -0 0 -0 -0 0 -0 -0 0 -0 -0 0 -0 -0 0 -0 -0 0 -0 -0 0 -0 -0 0 -0 -0 0 -0 -0 0 -0 -0 0 -0 -0 0 -0 -0 0 -0 
0 0.955 0 -0 0 -0 -0 0 -0 -0 0 -0 3.0434 17.847 14.497 -0 0 -0 -0 0 -0 0.81194 1.773 1.0308 -20.161 -11.699 18.812 -0 0 -0 -0 0 -0 -7.3634 -37.307 4.2894 113.7 -47.478 82.021 -0 0 -0 -0 0 -0 -0 0 -0 -0 0 -0 -0 0 -0 -0 0 -0 -0 0 -0 -0 0 -0 -0 0 -0 -0 0 -0 -0 0 -0 -0 0 -0 -0 0 -0 -0 0 -0 -0 0 -0 
